# xmcd
# 
# Track frame offsets:
#     182
#     14507
#     26002
#     44100
#     59370
#     74580
#     88340
#     104072
#     119995
#     132222
#     147015
#     165362
#     178505
#     198382
#     213012
#     243142
# 
# Disc length: 3428
# 
# Revision: 3
# Processed by: cddbd v1.5.2PL0 Copyright (c) Steve Scherf et al.
# Submitted via: fre:ac v1.1beta1pre5
# 
DISCID=f10d6210
DTITLE=Louis Armstrong - Hello Dolly!
DYEAR=1990
DGENRE=Jazz
TTITLE0=Only You (Ram - Rand)
TTITLE1=Hello Dolly! (J. Herman)
TTITLE2=Cabaret (Kander - Ebb)
TTITLE3=Blueberry Hill (A. Lewis - L. Stock - V. Rose)
TTITLE4=La Vie En Rose (M. David - Louiguy - E. Piaf)
TTITLE5=C'est Si Bon (J. Seelen - A. Hornez - H Betti)
TTITLE6=When The Saints Go Marchin'In (traditional)
TTITLE7=Mack The Knife (Brecht - Weill)
TTITLE8=Ramona (C. Wolfe - Gilbert - M. Wayne)
TTITLE9=The Gipsy (B. Reid)
TTITLE10=Ain't Misbehavin' (Waller - Brooks - Razaf)
TTITLE11=That's My Desire (Kresa - Loveday)
TTITLE12=I Can't Give You Anything But Love (J. McHugh - Fields)
TTITLE13=I've Got A Feeling I'm Falling (Rose - Link - Waller)
TTITLE14=New Orleans Function (traditional)
TTITLE15=A Kiss To Build A Dream On (B.Kalmar - H. Ruby - O. Hammerstein II)
EXTD=YEAR: 19899 ID3G: 0
EXTT0=
EXTT1=
EXTT2=
EXTT3=
EXTT4=
EXTT5=
EXTT6=
EXTT7=
EXTT8=
EXTT9=
EXTT10=
EXTT11=
EXTT12=
EXTT13=
EXTT14=
EXTT15=
PLAYORDER=
